<?xml version="1.0" standalone="no"?>
<!DOCTYPE svg PUBLIC "-//W3C//DTD SVG 20010904//EN"
 "http://www.w3.org/TR/2001/REC-SVG-20010904/DTD/svg10.dtd">
<svg version="1.0" xmlns="http://www.w3.org/2000/svg"
 width="850.000000pt" height="850.000000pt" viewBox="0 0 850.000000 850.000000"
 preserveAspectRatio="xMidYMid meet">
<metadata>
Created by potrace 1.14, written by Peter Selinger 2001-2017
</metadata>
<g transform="translate(0.000000,850.000000) scale(0.100000,-0.100000)"
fill="#000000" stroke="none">
<path d="M4144 6085 c-32 -16 -32 -17 -27 -76 5 -55 4 -60 -21 -80 -34 -26
-33 -72 0 -77 12 -2 25 -11 28 -20 3 -9 9 -23 12 -29 4 -9 -3 -13 -19 -13 -16
0 -28 -7 -31 -18 -4 -10 -24 -31 -45 -48 -80 -59 -101 -115 -121 -310 -14
-134 -9 -259 13 -303 15 -29 15 -29 -19 -36 -36 -6 -54 -29 -54 -68 0 -29 15
-44 50 -49 25 -3 25 -3 -12 -36 -39 -36 -85 -98 -90 -122 -2 -8 -11 -21 -21
-30 -29 -25 -93 -187 -126 -320 -17 -69 -31 -129 -31 -133 0 -17 38 -5 43 13
3 11 1 20 -4 20 -5 0 -9 5 -9 11 0 5 4 8 9 5 4 -3 18 34 31 82 30 116 47 166
78 232 67 141 174 256 288 310 64 30 68 31 123 19 31 -7 75 -22 98 -35 42 -24
99 -24 114 -1 4 5 12 6 18 2 8 -4 -1 -21 -26 -48 -21 -23 -70 -99 -108 -169
-39 -70 -77 -129 -86 -131 -9 -2 -19 -19 -23 -38 -10 -51 13 -68 114 -79 130
-15 200 -13 200 5 0 19 -47 38 -77 32 -13 -2 -23 1 -23 6 0 6 -17 28 -37 49
-45 46 -46 45 73 193 104 129 124 162 124 205 0 39 -22 60 -102 101 -45 23
-58 34 -58 52 0 25 -17 47 -37 47 -7 0 -13 -9 -13 -20 0 -47 -55 -12 -86 53
-33 71 -34 205 -3 278 21 49 23 117 4 192 -5 20 -1 24 32 33 42 10 45 17 44
112 0 45 3 52 20 52 29 0 23 27 -10 44 -31 16 -41 40 -41 98 0 44 -5 48 -73
54 -36 3 -62 0 -83 -11z m6 -525 c0 -5 -7 -10 -16 -10 -8 0 -12 5 -9 10 3 6
10 10 16 10 5 0 9 -4 9 -10z m30 -524 c0 -3 -4 -8 -10 -11 -5 -3 -10 -1 -10 4
0 6 5 11 10 11 6 0 10 -2 10 -4z m100 -16 c-8 -5 -19 -10 -25 -10 -5 0 -3 5 5
10 8 5 20 10 25 10 6 0 3 -5 -5 -10z m175 -100 c3 -6 -1 -7 -9 -4 -18 7 -21
14 -7 14 6 0 13 -4 16 -10z"/>
<path d="M4580 4993 c0 -15 -9 -44 -19 -64 -16 -30 -18 -42 -8 -76 9 -34 7
-49 -7 -87 -22 -58 -54 -80 -125 -86 -45 -4 -57 -9 -59 -24 -5 -26 49 -73 100
-86 46 -13 66 -45 49 -79 -10 -17 -21 -21 -64 -21 -99 1 -238 19 -262 34 -21
14 -24 13 -40 -5 -27 -28 -87 -42 -133 -29 -88 23 -130 129 -82 207 52 86 162
94 229 17 17 -19 33 -34 36 -34 10 0 85 163 85 186 0 12 9 33 20 47 24 30 25
37 6 37 -7 0 -24 8 -37 19 -23 18 -99 37 -129 32 -32 -5 -153 -96 -206 -155
-63 -69 -126 -189 -150 -286 -21 -81 -15 -261 10 -335 59 -173 178 -314 326
-389 l70 -35 -272 -3 c-150 -2 -275 -2 -277 -1 -2 1 8 7 23 13 151 57 191 255
75 371 -47 47 -74 50 -82 12 -3 -16 -8 -35 -11 -43 -5 -12 3 -15 36 -15 35 0
44 -4 58 -27 13 -25 13 -31 0 -55 -21 -38 -81 -45 -104 -12 -18 26 -18 25 -32
-16 -5 -16 -17 -31 -25 -33 -24 -4 -51 26 -44 49 5 15 1 19 -18 19 -60 0 -79
92 -23 119 21 10 34 10 52 2 22 -9 24 -8 30 25 3 19 4 37 2 39 -2 3 -29 -2
-59 -9 -43 -12 -63 -24 -100 -65 -59 -63 -77 -126 -59 -201 16 -65 83 -142
143 -163 40 -15 34 -16 -153 -17 -107 -2 -226 -5 -265 -9 -163 -15 304 -25
1205 -25 897 0 1305 9 1150 25 -36 4 -150 7 -255 8 -104 1 -268 4 -363 8
l-172 6 41 19 c123 54 251 183 311 310 49 102 63 167 63 288 -1 204 -82 370
-250 508 -42 35 -162 97 -207 108 -26 6 -28 4 -28 -23z m-423 -100 c-4 -3 -2
-12 4 -20 7 -8 8 -13 1 -13 -5 0 -15 6 -21 14 -9 11 -9 15 1 19 19 8 22 8 15
0z m520 -15 c-3 -8 -6 -5 -6 6 -1 11 2 17 5 13 3 -3 4 -12 1 -19z m-577 -13
c0 -8 -4 -15 -10 -15 -5 0 -7 7 -4 15 4 8 8 15 10 15 2 0 4 -7 4 -15z m665
-65 c-3 -5 -10 -10 -16 -10 -5 0 -9 5 -9 10 0 6 7 10 16 10 8 0 12 -4 9 -10z
m-75 -37 c-8 -3 -21 -10 -27 -16 -9 -7 -13 -5 -13 7 0 11 8 16 28 15 15 0 21
-3 12 -6z m147 -28 c46 -19 70 -48 84 -98 24 -89 -44 -172 -142 -170 -58 1
-91 23 -120 80 -34 70 -6 152 64 184 51 23 67 23 114 4z m-937 -75 c-8 -5 -19
-10 -25 -10 -5 0 -3 5 5 10 8 5 20 10 25 10 6 0 3 -5 -5 -10z m1063 -84 c4
-10 1 -13 -8 -9 -8 3 -12 9 -9 14 7 12 11 11 17 -5z m37 -30 c0 -3 -4 -8 -10
-11 -5 -3 -10 -1 -10 4 0 6 5 11 10 11 6 0 10 -2 10 -4z m-1163 -22 c-3 -3
-12 -4 -19 -1 -8 3 -5 6 6 6 11 1 17 -2 13 -5z m-20 -56 c-3 -8 -6 -5 -6 6 -1
11 2 17 5 13 3 -3 4 -12 1 -19z m648 -52 c22 -33 10 -71 -26 -86 -56 -24 -99
33 -69 91 16 29 75 26 95 -5z m-339 -115 c58 -35 82 -132 47 -191 -9 -15 -34
-38 -56 -50 -94 -53 -207 16 -207 127 0 44 39 109 73 123 39 15 110 11 143 -9z
m754 -16 c109 -105 5 -280 -140 -236 -42 13 -90 61 -90 92 0 11 -4 18 -9 15
-13 -8 15 92 31 111 50 61 154 70 208 18z m-389 -198 c47 -31 73 -87 65 -140
-27 -168 -276 -150 -276 20 0 59 25 103 71 126 48 23 100 21 140 -6z m-965
-104 c45 -59 -20 -128 -87 -93 -22 12 -27 78 -7 98 18 18 79 15 94 -5z m158
-42 c27 -29 18 -83 -16 -99 -23 -11 -33 -11 -55 0 -56 27 -35 118 27 118 15 0
35 -9 44 -19z"/>
<path d="M3611 4253 c-44 -180 -58 -249 -50 -258 6 -6 12 -6 18 0 13 14 91
277 85 287 -3 4 -14 8 -24 8 -14 0 -22 -11 -29 -37z"/>
<path d="M2250 3380 l0 -220 40 0 40 0 0 90 0 90 85 0 85 0 0 35 0 35 -85 0
-85 0 0 55 0 55 100 0 100 0 0 40 0 40 -140 0 -140 0 0 -220z"/>
<path d="M4640 3560 l0 -40 40 0 40 0 0 40 0 40 -40 0 -40 0 0 -40z"/>
<path d="M6350 3578 c-2 -235 -1 -359 4 -375 7 -23 45 -43 81 -43 22 0 25 4
25 39 0 30 -4 40 -20 44 -19 5 -20 14 -20 181 l0 176 -35 0 c-30 0 -35 -3 -35
-22z"/>
<path d="M4150 3515 c0 -33 -4 -45 -15 -45 -10 0 -15 -10 -15 -30 0 -19 5 -30
14 -30 11 0 15 -23 18 -106 3 -97 5 -107 27 -125 13 -10 38 -19 57 -19 33 0
34 1 34 39 0 30 -4 40 -20 44 -18 5 -20 14 -20 82 0 68 2 77 20 82 14 4 20 14
20 34 0 22 -5 29 -20 29 -17 0 -20 7 -20 45 l0 45 -40 0 -40 0 0 -45z"/>
<path d="M2974 3470 c-16 -5 -41 -21 -55 -36 -20 -22 -24 -37 -27 -103 -5 -91
11 -132 60 -157 39 -20 125 -15 164 11 l27 18 -23 17 c-19 14 -36 17 -75 13
-40 -4 -55 -2 -68 12 -37 37 -23 45 79 45 l97 0 -6 51 c-4 28 -13 62 -22 75
-32 49 -93 71 -151 54z m81 -85 c38 -37 31 -45 -36 -45 -57 0 -60 1 -57 22 3
20 38 47 61 48 4 0 19 -11 32 -25z"/>
<path d="M3598 3473 c-45 -7 -78 -46 -78 -93 0 -49 24 -77 74 -84 20 -3 51 -8
70 -11 37 -6 51 -26 33 -44 -16 -16 -87 -14 -120 4 -27 14 -30 13 -48 -8 -10
-12 -18 -28 -16 -36 6 -36 153 -54 207 -26 37 19 50 43 50 93 0 52 -22 70
-100 83 -73 11 -80 15 -80 35 0 17 74 20 114 4 22 -8 28 -5 46 21 l22 29 -34
14 c-39 16 -103 25 -140 19z"/>
<path d="M5780 3469 c-19 -6 -42 -17 -50 -25 -13 -13 -12 -17 10 -34 14 -11
32 -17 40 -14 43 16 67 15 90 -4 15 -12 21 -25 17 -35 -5 -14 -20 -17 -72 -17
-57 0 -69 -3 -92 -26 -22 -22 -25 -32 -20 -72 3 -31 12 -52 27 -64 27 -22 94
-24 133 -4 23 13 27 13 27 0 0 -9 11 -14 35 -14 l35 0 0 109 c0 59 -5 122 -11
140 -18 51 -99 80 -169 60z m109 -203 c4 -24 -24 -46 -60 -46 -41 0 -59 10
-59 31 0 40 111 53 119 15z"/>
<path d="M4640 3315 l0 -155 40 0 40 0 0 155 0 155 -40 0 -40 0 0 -155z"/>
<path d="M5080 3462 c0 -5 24 -74 54 -153 51 -136 55 -144 82 -147 27 -3 30 1
55 70 15 40 40 110 58 156 l30 82 -39 0 -39 0 -27 -87 c-14 -49 -30 -92 -34
-97 -5 -5 -22 34 -38 85 l-29 94 -36 3 c-21 2 -37 -1 -37 -6z"/>
<path d="M3649 2633 c0 -10 -2 -39 -4 -65 -2 -36 1 -48 12 -48 9 0 13 8 11 23
-2 18 2 23 30 25 40 4 42 22 2 22 -23 0 -30 4 -30 20 0 16 7 20 36 20 21 0 33
4 29 10 -3 6 -24 10 -46 10 -30 0 -39 -4 -40 -17z"/>
<path d="M3940 2585 c0 -37 4 -65 10 -65 6 0 10 28 10 65 0 37 -4 65 -10 65
-6 0 -10 -28 -10 -65z"/>
<path d="M4169 2648 c0 -2 -1 -31 -3 -65 l-3 -63 49 0 c26 0 48 5 48 10 0 6
-16 10 -35 10 l-35 0 0 55 c0 30 -4 55 -10 55 -5 0 -10 -1 -11 -2z"/>
<path d="M4544 2609 l-28 -41 -33 38 -33 39 0 -62 c0 -36 4 -63 10 -63 6 0 10
15 10 33 l1 32 20 -25 21 -25 18 23 c24 29 29 28 27 -4 -1 -15 4 -29 11 -31 9
-3 12 13 12 61 0 36 -2 66 -4 66 -2 0 -16 -19 -32 -41z"/>
<path d="M4792 2641 c-25 -16 -10 -55 26 -67 41 -13 38 -29 -6 -28 -48 2 -34
-20 15 -24 35 -3 42 0 48 18 9 27 -8 47 -46 55 -40 9 -31 31 11 27 28 -2 31 0
20 13 -14 16 -47 20 -68 6z"/>
</g>
</svg>
